<?xml version="1.0" standalone="no"?>
<!DOCTYPE svg PUBLIC "-//W3C//DTD SVG 20010904//EN"
 "http://www.w3.org/TR/2001/REC-SVG-20010904/DTD/svg10.dtd">
<svg version="1.0" xmlns="http://www.w3.org/2000/svg"
 width="900.000000pt" height="900.000000pt" viewBox="0 0 900.000000 900.000000"
 preserveAspectRatio="xMidYMid meet">
<metadata>
Created by potrace 1.16, written by Peter Selinger 2001-2019
</metadata>
<g transform="translate(0.000000,900.000000) scale(0.100000,-0.100000)"
fill="#000000" stroke="none">
<path d="M0 8672 l0 -328 78 -88 79 -88 743 -248 c721 -242 745 -249 790 -239
25 5 137 32 250 60 209 51 305 74 535 129 213 51 811 198 935 230 156 40 1167
290 1415 350 269 65 428 100 454 100 30 0 56 -14 266 -143 99 -60 243 -148
320 -195 149 -90 335 -203 530 -322 196 -120 447 -271 485 -293 159 -90 676
-405 1150 -700 509 -317 860 -531 931 -568 l39 -19 0 138 c0 155 2 151 -83
202 -21 12 -53 36 -70 51 -17 16 -37 29 -44 29 -7 0 -13 5 -13 10 0 6 -7 10
-15 10 -8 0 -15 5 -15 11 0 5 -13 15 -30 20 -16 6 -30 15 -30 20 0 5 -9 9 -20
9 -11 0 -25 9 -32 20 -7 11 -19 20 -26 20 -7 0 -25 12 -40 28 -34 32 -66 52
-87 52 -8 0 -20 9 -27 20 -7 11 -18 20 -24 20 -7 0 -29 16 -50 35 -42 37 -59
43 -68 23 -3 -7 -4 -4 -1 7 3 13 -2 25 -16 33 -18 11 -23 11 -35 -5 -13 -17
-14 -16 -9 7 5 21 -1 29 -35 50 -22 14 -40 28 -40 32 0 3 -13 9 -30 13 -16 4
-30 10 -30 14 0 4 -15 15 -32 26 -18 10 -50 37 -71 59 -21 23 -36 35 -32 28 9
-17 -53 21 -95 58 -31 28 -44 34 -63 31 -4 0 -7 3 -7 9 0 5 -7 10 -15 10 -8 0
-15 7 -15 15 0 17 -41 30 -70 22 -11 -3 -23 -1 -26 4 -3 5 5 9 17 9 l23 0 -22
20 c-12 11 -24 20 -27 20 -3 0 -30 18 -59 40 -29 22 -62 40 -73 40 -16 0 -20
5 -16 20 4 16 0 20 -18 20 -13 0 -37 14 -53 30 -32 32 -52 39 -42 15 7 -19 8
-19 -42 5 -23 11 -42 26 -42 32 0 6 9 3 20 -7 14 -13 24 -15 31 -8 7 7 2 17
-18 32 -15 11 -33 25 -40 31 -7 5 -16 10 -21 10 -5 0 -15 7 -23 16 -8 9 -21
13 -35 10 -25 -7 -54 2 -54 15 0 5 8 9 17 9 36 0 -8 25 -51 29 -4 1 -5 8 -2
16 4 11 -3 17 -24 22 -21 4 -30 11 -30 24 0 14 -7 19 -27 19 -34 0 -58 14 -49
28 3 6 -3 13 -14 17 -11 3 -27 14 -36 23 -10 9 -31 15 -52 15 -28 -1 -32 1
-19 8 9 6 17 13 17 17 0 10 -51 33 -60 27 -4 -2 -13 7 -20 21 -8 13 -24 27
-37 30 -13 4 -23 12 -23 20 0 7 -12 16 -27 20 -44 10 -73 33 -73 55 0 16 -5
20 -20 16 -10 -3 -20 -2 -22 2 -8 17 -61 49 -74 44 -8 -3 -14 1 -14 8 0 7 -3
9 -7 6 -9 -10 -34 13 -27 25 3 5 -3 12 -15 15 -12 3 -21 12 -21 19 0 8 -6 15
-12 15 -7 1 -20 2 -28 3 -8 0 -15 9 -15 18 0 16 -54 62 -87 74 -10 4 -18 10
-18 15 0 5 -5 9 -11 9 -5 0 -8 -4 -4 -10 3 -5 -7 -5 -25 1 -36 13 -40 22 -6
13 13 -3 27 -1 30 5 4 7 1 8 -8 5 -9 -3 -16 -2 -16 3 0 5 52 21 115 34 136 30
128 37 124 -101 -2 -49 -1 -91 2 -93 124 -96 130 -99 173 -88 41 11 101 24
291 61 115 23 204 41 360 73 124 26 121 22 124 137 1 30 8 66 16 80 19 34 19
34 -14 70 -22 24 -39 33 -72 36 -24 2 -60 6 -79 10 l-35 6 41 14 c22 7 149 38
283 68 133 29 247 58 252 63 4 4 11 41 15 81 l7 72 -1110 0 c-1221 0 -1122 5
-1124 -58 0 -27 0 -27 -11 -4 -6 12 -15 22 -20 22 -4 0 -9 -10 -9 -22 -1 -21
-2 -21 -6 -3 -2 11 -9 30 -15 43 l-11 22 -356 -1 c-196 0 -350 -3 -343 -6 27
-10 -27 -35 -71 -32 -64 4 -140 -11 -160 -33 -10 -10 -22 -16 -27 -13 -12 7
-52 -13 -63 -31 -4 -7 -26 -15 -49 -19 -23 -4 -50 -12 -59 -18 -9 -6 -24 -7
-35 -2 -11 5 -29 10 -42 11 -18 2 -22 -1 -17 -16 5 -17 3 -18 -29 -9 -32 9
-37 7 -71 -27 -22 -22 -42 -34 -51 -30 -9 3 -21 3 -27 -1 -19 -12 -46 -13 -52
-3 -9 15 -73 12 -82 -3 -4 -8 -24 -22 -43 -33 -19 -10 -39 -25 -43 -31 -4 -7
-28 -13 -52 -13 -25 0 -45 -5 -47 -12 -3 -9 -15 -8 -46 6 -24 11 -48 16 -59
11 -17 -7 -17 -8 1 -14 12 -5 16 -10 9 -14 -6 -4 -23 -3 -38 3 -35 13 -35 14
-35 -16 0 -17 -6 -28 -20 -31 -11 -3 -17 -9 -14 -14 3 -5 -2 -9 -10 -9 -8 0
-18 4 -21 10 -3 5 -19 7 -35 4 -19 -4 -37 0 -54 12 -30 22 -33 39 -8 53 15 9
14 10 -8 11 -14 0 -36 3 -50 7 -22 6 -24 5 -11 -10 11 -14 11 -18 -5 -24 -11
-3 -30 -15 -43 -25 -18 -14 -20 -18 -7 -18 9 0 16 -4 16 -10 0 -5 7 -10 15
-10 20 0 19 -17 -3 -29 -13 -7 -23 -4 -43 15 -26 25 -27 25 -65 9 -39 -16
-151 -18 -160 -3 -3 5 -13 8 -22 8 -13 0 -13 -2 4 -15 16 -13 17 -16 4 -25 -8
-5 -23 -10 -32 -10 -10 0 -18 -4 -18 -10 0 -5 5 -10 10 -10 6 0 10 -8 10 -19
0 -13 -10 -20 -31 -25 -37 -7 -50 -1 -42 19 3 8 0 15 -5 15 -6 0 -14 9 -17 20
-7 21 -42 25 -100 10 -29 -7 -29 -8 -7 -15 12 -4 22 -14 22 -22 0 -13 -12 -15
-65 -11 -57 3 -65 2 -65 -14 0 -20 8 -22 30 -8 16 10 30 -4 30 -30 0 -12 -2
-13 -9 -1 -7 11 -13 9 -31 -9 -21 -21 -22 -21 -38 -3 -17 18 -48 35 -86 47
-13 5 -17 2 -13 -9 4 -8 2 -17 -3 -20 -6 -4 -10 7 -10 24 0 17 5 31 10 31 6 0
10 4 10 10 0 5 -8 7 -17 3 -15 -5 -15 -3 2 10 10 8 24 13 30 10 8 -2 10 6 7
25 -3 26 -9 30 -63 41 -58 13 -71 23 -46 35 6 4 1 4 -12 2 -13 -3 -34 2 -47
11 -13 8 -34 13 -46 10 -25 -7 -78 2 -78 14 0 4 18 6 40 4 37 -3 39 -2 29 16
-6 12 -16 18 -23 16 -15 -6 -51 24 -51 43 0 14 -119 62 -130 52 -2 -3 -16 3
-31 13 -17 11 -36 15 -56 11 -33 -7 -116 24 -85 31 9 3 17 10 17 18 0 8 -7 11
-19 8 -13 -3 -20 2 -25 21 -5 19 -13 26 -31 26 -14 0 -36 13 -52 30 -21 22
-32 27 -43 20 -10 -6 -11 -10 -2 -10 6 0 12 -4 12 -10 0 -16 -49 -12 -124 10
-67 19 -103 20 -973 20 l-903 0 0 -328z m6135 178 l-20 -9 20 -1 c18 -1 19 -1
3 -11 -10 -5 -18 -15 -18 -22 0 -7 4 -6 10 3 12 19 12 -176 0 -205 -7 -17 -9
-17 -9 -2 -1 9 -8 17 -16 17 -9 0 -18 7 -21 15 -4 8 -17 15 -30 15 -15 0 -24
6 -24 15 0 8 -8 15 -18 15 -10 0 -29 11 -42 25 -13 14 -27 25 -31 25 -5 0 -19
11 -33 25 -14 14 -35 25 -48 26 -13 0 0 7 27 14 28 8 88 25 135 38 86 25 157
35 115 17z"/>
<path d="M4935 8074 c-5 -2 -82 -17 -170 -33 -146 -28 -409 -81 -785 -161 -80
-17 -176 -37 -215 -45 -38 -8 -88 -19 -110 -25 -22 -6 -62 -15 -90 -20 -65
-12 -216 -44 -335 -70 -52 -12 -108 -24 -125 -26 -16 -3 -75 -16 -130 -29 -55
-13 -134 -31 -175 -40 -118 -25 -207 -45 -315 -70 -55 -13 -145 -33 -200 -45
-55 -11 -136 -30 -180 -40 -44 -11 -105 -24 -135 -30 -66 -12 -112 -29 -105
-40 3 -4 -2 -13 -10 -20 -15 -12 -18 -80 -3 -80 4 0 8 -7 8 -16 0 -9 7 -14 17
-12 26 5 26 25 1 33 -21 6 -21 8 -4 12 10 3 21 1 25 -5 7 -11 68 -9 79 3 4 4
1 10 -5 12 -27 10 -11 21 41 27 30 3 61 9 70 12 11 4 16 1 16 -11 0 -14 5 -13
30 8 33 29 66 26 89 -6 14 -20 14 -20 22 1 5 12 13 22 20 22 6 0 9 -6 6 -14
-4 -10 0 -12 13 -9 11 3 22 14 25 24 7 22 21 25 28 5 3 -7 19 -16 37 -19 20
-4 29 -11 24 -18 -5 -8 -2 -9 12 -1 10 6 19 16 19 24 0 7 5 14 10 15 6 1 9
-12 8 -28 -1 -28 1 -30 24 -24 29 7 54 -10 46 -31 -3 -9 2 -14 16 -14 12 0 21
6 21 13 0 6 12 12 28 13 l27 1 -1 -78 c-2 -68 1 -78 17 -82 10 -3 22 -13 25
-24 3 -10 10 -26 15 -36 9 -16 7 -18 -8 -13 -22 7 -46 -25 -37 -49 10 -24 26
-18 18 8 -3 12 -3 19 1 15 4 -4 10 -22 14 -40 5 -23 12 -32 24 -30 13 2 17 -5
18 -30 1 -18 1 -37 -1 -43 -1 -5 7 -2 18 8 10 9 22 17 25 17 13 0 7 -52 -8
-66 -24 -24 -18 -34 19 -34 19 0 37 -3 39 -7 3 -5 -5 -39 -18 -78 -24 -74 -24
-85 -2 -66 11 9 17 8 27 -4 11 -13 8 -15 -16 -16 -27 -1 -27 -2 8 -12 44 -12
55 -36 38 -78 -7 -16 -10 -39 -6 -53 5 -22 -5 -100 -20 -151 -4 -11 6 -3 20
18 15 22 29 60 33 85 6 52 19 82 33 82 6 0 10 -7 10 -16 0 -9 16 -30 35 -47
19 -16 35 -39 35 -50 0 -21 0 -21 16 1 20 29 30 28 38 -3 8 -30 22 -32 31 -5
3 11 11 20 17 20 5 0 8 -3 6 -7 -24 -49 -32 -63 -40 -63 -4 0 -8 5 -8 10 0 6
-7 10 -16 10 -12 0 -15 -6 -10 -25 5 -18 1 -28 -14 -37 -12 -8 -20 -23 -20
-38 l1 -25 20 28 c21 27 59 37 59 15 -1 -18 -25 -48 -39 -48 -7 0 -9 -5 -5
-11 4 -8 9 -8 17 0 20 20 27 11 27 -38 0 -37 -5 -54 -25 -75 -14 -15 -25 -29
-25 -30 0 -2 11 -7 25 -10 14 -4 43 -23 65 -42 33 -30 40 -33 40 -18 1 18 1
18 14 2 7 -10 17 -18 23 -18 5 0 7 -16 5 -35 -4 -30 -1 -36 21 -44 18 -7 34
-5 61 7 39 18 45 32 20 53 -15 12 -14 14 2 19 14 5 11 9 -14 19 -39 16 -40 24
-5 40 21 10 28 10 31 1 3 -7 9 -2 16 10 13 27 30 28 34 3 2 -10 9 -22 16 -28
7 -5 15 -21 19 -35 3 -14 13 -34 22 -45 15 -20 15 -20 30 -1 8 11 15 23 15 28
0 4 -7 8 -15 8 -18 0 -19 12 -3 28 18 18 28 15 28 -8 0 -11 5 -20 11 -20 6 0
8 -9 4 -20 -9 -28 13 -25 41 5 15 16 24 40 26 67 2 28 7 42 16 40 15 -3 15 3
0 44 -11 30 -9 35 20 68 27 31 30 39 20 56 -14 21 -7 32 19 34 10 0 29 8 41
18 21 14 23 23 20 64 -3 42 0 49 17 52 34 6 42 22 21 38 -15 10 -16 14 -5 14
18 0 69 51 69 68 0 7 9 12 20 12 11 0 20 5 20 10 0 6 16 20 35 31 37 22 45 39
20 39 -8 0 -15 5 -15 10 0 6 9 10 20 10 11 0 20 4 20 9 0 15 33 22 43 9 6 -9
7 -5 3 11 -3 14 3 40 14 61 10 20 16 47 13 58 -4 17 1 24 22 32 18 7 25 15 21
25 -3 8 0 14 7 12 7 -1 12 8 12 20 0 12 4 25 8 29 4 4 7 -1 7 -10 0 -10 6 -16
12 -14 12 4 24 41 35 105 3 21 19 45 44 68 21 19 39 44 39 55 0 26 28 70 44
70 18 0 40 45 33 69 -3 12 -2 19 3 16 11 -7 27 15 35 48 5 20 13 27 31 27 21
0 24 4 24 40 0 28 4 40 14 40 8 0 17 8 20 18 4 11 19 25 34 32 15 8 44 30 64
50 55 52 66 60 82 60 8 0 20 13 27 29 9 20 22 31 41 33 15 3 28 0 28 -5 0 -6
3 -7 6 -4 4 4 1 14 -7 24 -8 9 -9 14 -3 10 12 -7 62 16 112 52 18 13 45 26 60
30 15 4 31 17 37 29 5 12 18 22 28 22 10 0 16 4 13 9 -4 5 12 12 34 16 36 6
40 10 40 35 0 16 -6 31 -12 33 -9 4 -7 6 3 6 37 2 67 78 38 97 -8 4 -7 9 2 15
10 6 4 8 -16 8 -16 0 -34 -2 -40 -5z"/>
<path d="M5141 8011 c-8 -5 -20 -7 -28 -4 -7 3 -29 2 -49 -1 -32 -7 -35 -9
-30 -38 2 -16 14 -40 25 -52 12 -12 21 -28 21 -34 0 -7 8 -16 17 -19 25 -10
53 -36 53 -49 0 -6 10 -16 23 -23 21 -11 37 -38 52 -89 9 -30 43 -49 51 -27 3
8 10 12 15 9 5 -3 4 -14 -2 -25 -8 -16 -7 -25 5 -38 9 -10 16 -27 16 -39 0
-15 6 -22 20 -22 11 0 20 -5 20 -11 0 -5 4 -8 9 -4 11 6 51 -47 51 -68 0 -8 7
-17 15 -21 10 -4 15 -20 16 -53 0 -26 3 -42 6 -35 7 17 33 -4 34 -27 0 -9 9
-41 19 -71 17 -50 19 -52 19 -22 1 21 5 31 12 27 6 -4 7 -19 4 -37 -5 -21 -2
-35 11 -49 13 -15 17 -34 15 -94 -2 -70 -1 -75 18 -75 12 0 21 -4 21 -10 0 -5
-4 -10 -10 -10 -5 0 -10 -5 -10 -12 0 -6 3 -8 7 -5 7 7 37 -31 38 -48 1 -5 5
-23 9 -38 7 -21 13 -26 28 -21 14 4 21 0 25 -15 3 -12 9 -21 14 -21 17 0 9
-15 -13 -25 -30 -13 -37 -55 -10 -55 11 0 26 -9 33 -21 18 -25 129 -41 129
-18 1 9 8 6 20 -9 10 -13 16 -30 13 -37 -11 -30 29 -14 76 30 40 37 54 45 74
40 14 -4 28 -2 31 4 4 6 23 11 43 11 22 0 41 7 49 18 12 16 13 15 14 -5 0 -30
15 -29 42 2 12 14 31 25 44 25 25 0 53 28 38 38 -14 10 -11 35 4 40 7 2 12 -5
12 -17 0 -12 6 -21 14 -21 11 0 13 10 9 40 -4 31 -2 40 9 40 8 0 23 18 33 40
21 46 35 52 35 15 0 -28 5 -30 40 -11 14 8 38 12 57 9 24 -4 34 -1 39 11 3 9
13 16 21 16 8 0 23 10 33 22 16 20 26 22 109 21 82 0 95 -3 116 -23 22 -21 28
-22 49 -11 24 13 51 7 41 -9 -6 -10 56 -7 73 3 11 8 5 47 -8 47 -5 0 -6 10 -3
23 3 12 3 19 -2 15 -4 -4 -15 1 -26 10 -10 10 -47 32 -83 50 -36 18 -68 37
-71 42 -3 6 -15 10 -26 10 -10 0 -19 4 -19 8 0 9 -33 28 -180 105 -52 27 -120
63 -150 80 -77 43 -368 196 -540 284 -79 41 -156 82 -170 92 -14 10 -41 24
-60 31 -19 8 -37 16 -40 19 -3 3 -93 50 -200 104 -187 93 -228 107 -259 88z"/>
<path d="M0 4604 c0 -2569 2 -2907 15 -2920 20 -21 19 -44 -2 -45 -13 0 -12
-3 6 -10 15 -6 21 -14 17 -24 -6 -17 38 -40 55 -30 5 3 17 1 28 -5 23 -12 39
4 22 23 -7 9 -2 16 20 26 16 7 29 19 29 27 0 18 18 18 36 -1 9 -8 25 -15 37
-15 18 0 20 2 7 11 -12 9 -11 10 7 6 27 -6 42 11 22 24 -15 10 -4 13 36 10 19
-2 19 -1 2 13 -11 8 -24 13 -30 10 -7 -2 -23 5 -37 16 -19 15 -21 20 -8 20 9
0 18 -5 20 -10 2 -6 28 -13 58 -17 30 -3 64 -12 75 -19 23 -16 65 -19 65 -4 0
6 17 10 38 9 38 -1 37 -3 -10 -13 -16 -4 -28 -10 -28 -15 0 -11 93 -32 100
-23 3 4 21 6 40 5 48 -3 130 -20 105 -22 l-20 -2 20 -9 c11 -5 14 -9 8 -9 -7
-1 -13 -6 -13 -11 0 -7 7 -7 21 1 13 7 24 7 28 2 7 -12 41 -13 41 -2 0 9 170
-49 206 -70 11 -6 71 -30 134 -55 l115 -44 3 -51 c2 -36 7 -51 18 -51 7 0 14
-4 14 -8 0 -12 56 -42 79 -42 11 0 93 -31 183 -69 90 -37 269 -112 398 -166
129 -54 271 -114 315 -132 44 -19 163 -68 265 -109 102 -42 203 -84 225 -94
106 -49 1015 -420 1030 -420 3 0 32 -12 62 -26 31 -14 111 -48 177 -75 67 -27
130 -54 141 -58 97 -41 144 -60 165 -66 14 -4 53 -20 86 -36 50 -23 75 -29
133 -29 l71 0 1 43 c0 23 2 57 5 75 3 28 1 32 -20 32 -13 0 -26 3 -28 8 -1 4
-64 31 -138 61 -148 59 -178 71 -260 107 -30 13 -120 48 -200 78 -333 126
-524 201 -685 271 -16 7 -61 25 -100 40 -38 15 -88 35 -110 44 -22 10 -94 40
-160 66 -66 26 -162 65 -213 86 -51 22 -96 39 -100 39 -8 0 -141 49 -163 60
-9 5 -93 39 -185 75 -93 36 -178 70 -189 75 -11 6 -51 21 -90 35 -38 14 -83
32 -100 39 -16 8 -68 28 -115 46 -86 32 -134 52 -268 109 -40 17 -79 31 -88
31 -13 0 -15 8 -10 37 3 21 10 164 16 318 5 154 17 438 25 630 8 193 22 530
30 750 8 220 20 497 25 615 6 118 17 391 25 605 9 215 20 496 25 625 5 129 14
366 20 525 6 160 15 407 20 550 6 143 10 302 10 354 l0 93 -27 -5 c-31 -7
-149 -21 -295 -37 -105 -11 -320 -22 -276 -14 25 5 61 34 42 34 -5 0 -16 4
-24 10 -12 7 -8 15 22 44 20 20 44 46 52 58 21 29 21 78 1 78 -9 0 -12 -6 -8
-15 3 -9 -1 -23 -9 -33 -8 -9 -18 -25 -21 -34 -12 -33 -27 -18 -27 27 0 25 5
45 10 45 6 0 10 8 10 18 1 9 15 26 33 37 27 17 33 27 35 63 3 37 6 42 28 42
22 0 24 4 24 46 0 38 3 45 16 40 14 -5 15 -1 9 31 -6 33 -5 35 10 23 12 -10
19 -10 27 -2 7 7 8 12 3 12 -5 0 16 18 46 40 30 22 59 43 64 47 6 5 20 7 33 5
12 -2 22 1 22 7 0 5 9 12 19 16 11 3 18 11 15 18 -3 8 9 13 32 14 21 1 40 6
43 11 9 15 97 26 105 13 4 -6 15 -11 24 -10 16 0 16 1 0 7 -14 6 -13 9 8 25
20 15 24 15 24 3 0 -23 21 -31 32 -12 5 9 13 14 18 11 5 -3 11 -1 15 5 3 5 -1
10 -9 10 -22 0 -14 52 10 60 15 6 12 9 -16 16 -19 4 -42 9 -50 10 -45 4 -46 4
-27 15 9 5 22 7 29 3 8 -5 9 -2 5 9 -4 10 -1 17 5 17 6 0 8 3 5 6 -4 4 -13 1
-21 -5 -8 -7 -23 -10 -34 -7 -16 5 -18 2 -15 -21 4 -22 -1 -31 -24 -44 -15 -9
-44 -19 -63 -22 -19 -3 -84 -15 -145 -27 -60 -12 -159 -30 -220 -40 -60 -11
-146 -26 -190 -34 -186 -36 -228 -41 -233 -28 -6 20 -32 14 -32 -8 0 -12 -7
-20 -17 -20 -10 0 -29 -3 -43 -5 -24 -5 -24 -5 -2 4 41 19 28 35 -50 62 -32
11 -49 12 -51 5 -3 -8 -8 -7 -18 1 -10 8 -61 13 -142 15 -125 3 -147 10 -73
24 28 5 37 4 32 -5 -10 -16 16 -13 39 6 19 14 15 15 -49 9 -37 -3 -73 -9 -80
-14 -6 -5 -33 -10 -59 -10 -27 0 -61 -6 -77 -12 -16 -7 -35 -10 -42 -7 -7 2 5
9 27 15 81 21 586 132 600 132 23 0 18 17 -7 23 -13 2 -175 45 -361 96 -186
50 -341 91 -343 91 -2 0 -4 -1308 -4 -2906z m1440 1111 c-6 -170 -15 -429 -20
-575 -5 -146 -12 -326 -15 -400 -18 -420 -35 -865 -35 -890 0 -36 -23 -42 -98
-24 -82 19 -112 18 -112 -4 0 -16 15 -22 84 -35 47 -10 93 -17 103 -17 17 0
18 -11 6 -287 -14 -335 -36 -913 -58 -1508 -8 -231 -19 -443 -23 -470 l-7 -51
-220 88 c-121 49 -231 93 -245 99 -14 5 -44 17 -67 26 -24 8 -40 20 -37 24 3
5 -2 12 -10 15 -9 3 -16 15 -16 25 0 10 -5 19 -10 19 -6 0 -15 11 -21 24 -8
17 -25 27 -65 36 -30 7 -54 16 -54 21 0 13 33 20 41 8 5 -8 12 -8 25 0 18 10
18 10 -3 11 -18 0 -23 6 -23 24 0 24 -29 86 -41 86 -3 0 -4 10 -2 23 6 33 -14
80 -32 73 -11 -4 -15 2 -17 22 0 15 -2 34 -3 42 -1 8 0 18 2 21 6 13 212 -43
298 -80 11 -5 43 -16 70 -26 28 -9 60 -21 72 -27 13 -6 26 -9 29 -6 6 7 -65
40 -135 64 -25 8 -70 26 -99 39 -29 14 -57 25 -62 25 -9 0 -35 11 -128 53 -24
11 -47 29 -52 41 -7 17 -9 15 -9 -16 -1 -20 -6 -40 -11 -43 -13 -8 -13 130 0
445 5 129 12 334 16 455 3 121 10 227 15 236 5 9 6 19 3 22 -7 7 -6 294 1 397
10 152 11 239 4 234 -5 -2 -4 8 1 23 14 41 27 551 15 565 -7 8 -6 9 3 4 14 -8
13 -23 17 224 2 96 6 234 10 305 12 258 14 312 20 460 8 208 16 319 22 325 3
3 2 -129 -1 -294 -6 -219 -5 -296 4 -291 6 4 17 2 25 -5 19 -16 55 4 55 30 0
11 7 20 15 20 20 0 20 44 0 60 -9 7 -12 16 -7 19 19 12 52 91 52 124 0 23 -8
41 -25 57 -26 24 -34 60 -14 60 8 0 10 14 6 39 -5 43 5 50 68 51 35 0 67 19
48 27 -15 5 -18 33 -4 33 5 0 11 -6 14 -12 3 -9 11 -6 25 9 16 16 20 29 15 57
-6 37 3 45 26 24 11 -11 13 -10 8 4 -4 13 -2 15 10 11 11 -4 14 -3 9 6 -5 8 1
11 21 10 15 -1 73 3 128 9 55 6 145 14 200 17 112 7 155 13 155 24 0 8 -138 4
-194 -5 -28 -5 -37 -4 -32 4 9 15 -4 15 -39 2 -17 -7 -24 -7 -20 0 4 6 -11 10
-37 9 -40 -1 -41 -2 -13 -9 25 -6 26 -8 7 -9 -52 -2 -81 40 -47 69 8 7 15 9
15 5 0 -4 6 -2 14 4 8 7 12 21 9 31 -6 22 7 26 24 9 9 -9 13 -6 18 13 5 20 11
24 31 20 13 -2 22 -8 19 -12 -12 -20 35 -20 54 -1 25 25 59 27 68 6 4 -13 15
-14 49 -9 28 4 49 2 58 -5 19 -16 55 6 58 34 1 11 3 -2 6 -30 2 -27 -1 -189
-8 -360z"/>
<path d="M7547 6779 c10 -10 6 -18 -20 -40 -30 -26 -31 -28 -12 -35 26 -9 85
-65 85 -79 0 -7 7 -25 15 -42 8 -16 16 -38 18 -49 2 -10 7 -26 10 -34 3 -8 6
-26 6 -40 0 -58 20 -119 43 -131 12 -6 17 -17 14 -26 -4 -10 1 -17 15 -20 18
-5 20 -11 15 -43 -5 -31 -2 -41 19 -60 32 -30 33 -60 3 -61 l-23 0 23 -16 c23
-16 29 -42 13 -59 -5 -5 -11 -31 -14 -58 -3 -27 -1 -43 3 -35 9 14 19 -17 18
-56 -1 -47 21 -177 33 -191 7 -9 14 -28 15 -42 1 -15 2 -38 3 -52 1 -14 5 -20
9 -15 7 10 32 18 32 11 0 -3 -7 -12 -16 -20 -20 -20 -12 -31 37 -56 43 -22
105 -19 147 7 13 8 30 12 37 9 8 -3 17 -1 20 4 4 6 1 10 -4 10 -15 0 -14 26 1
50 10 16 10 24 0 40 -14 23 -16 50 -3 50 10 0 12 28 4 73 -4 22 -8 26 -18 17
-8 -7 -19 -9 -26 -5 -7 5 -8 10 -1 14 6 3 13 49 15 101 3 52 8 103 12 113 4
10 3 28 -3 40 -16 34 -25 61 -24 69 1 4 -5 5 -13 2 -9 -4 -15 0 -15 9 0 23 22
67 33 67 5 0 6 7 3 16 -8 21 14 50 25 33 4 -8 9 -6 13 7 9 29 112 58 173 50
46 -6 50 -4 63 20 12 22 12 27 0 34 -8 6 -11 10 -6 10 18 0 -74 59 -170 109
-54 28 -110 58 -124 66 -61 35 -494 245 -483 234z"/>
<path d="M6000 6290 c0 -5 -8 -10 -17 -10 -17 -1 -17 -1 0 -14 32 -24 21 -39
-25 -33 -24 3 -36 3 -28 1 9 -3 21 -18 27 -35 8 -19 23 -35 42 -42 17 -6 31
-17 31 -23 0 -6 8 -15 18 -18 26 -10 56 -29 77 -49 9 -10 24 -16 31 -13 7 3
16 1 19 -4 10 -16 29 -11 43 11 10 15 10 24 2 34 -7 8 -9 18 -6 23 3 5 -6 20
-20 33 -19 18 -34 23 -67 20 -23 -1 -43 -7 -45 -12 -2 -4 -9 -3 -17 4 -9 8
-11 28 -8 65 5 44 3 52 -11 52 -9 0 -16 5 -16 10 0 6 -7 10 -15 10 -8 0 -15
-4 -15 -10z"/>
<path d="M8630 6100 c0 -110 7 -139 25 -109 4 5 12 8 18 6 7 -2 17 3 24 12 11
14 13 14 26 -3 11 -15 17 -17 35 -7 21 11 26 22 23 49 -1 6 2 12 8 12 5 0 12
-6 14 -12 3 -7 6 -3 6 10 1 12 7 22 16 22 8 0 15 5 15 10 0 16 87 50 126 50
31 0 34 3 34 29 l0 29 -97 -4 c-54 -3 -116 -6 -137 -9 -26 -2 -53 3 -77 16
-21 10 -43 19 -49 19 -6 0 -10 -44 -10 -120z"/>
<path d="M5993 5970 c-7 -10 -9 -22 -4 -25 5 -3 11 1 14 7 2 7 7 -10 11 -37 6
-40 3 -63 -15 -110 -29 -79 -53 -111 -107 -146 -73 -46 -167 -35 -372 42 -153
58 -186 64 -330 63 -74 0 -154 -6 -177 -13 l-43 -12 0 -58 0 -57 73 25 c105
36 271 35 410 -3 54 -14 116 -35 137 -46 53 -27 209 -52 251 -40 18 6 50 23
70 40 36 28 38 29 44 10 3 -11 11 -20 16 -20 5 0 2 11 -7 25 -15 23 -15 26 4
49 11 14 23 22 27 18 5 -4 6 -2 3 3 -8 13 38 149 51 153 6 2 11 -5 12 -15 0
-16 1 -16 9 2 12 28 11 56 -1 30 -7 -16 -8 -12 -5 15 l5 35 -14 -30 -14 -30
-1 26 c0 15 3 41 6 59 l7 32 12 -28 c12 -29 12 -29 12 14 0 42 0 42 -36 42
-25 0 -40 -6 -48 -20z"/>
<path d="M6265 5663 c-22 -3 -49 -13 -61 -24 -11 -10 -23 -17 -25 -15 -3 3 -5
-3 -6 -12 0 -9 -6 -44 -12 -77 -6 -33 -11 -81 -11 -107 0 -28 -6 -53 -15 -62
-13 -13 -13 -15 6 -21 57 -18 107 58 135 204 l18 92 30 -3 c38 -4 71 -50 81
-114 8 -54 -3 -192 -16 -200 -5 -3 -7 -9 -4 -14 10 -16 -33 -87 -72 -118 -70
-55 -149 -65 -229 -28 -53 25 -148 121 -137 140 3 6 3 8 -2 4 -4 -4 -29 11
-55 35 -86 79 -114 101 -178 139 -76 47 -240 103 -338 116 -131 18 -382 -13
-405 -50 -11 -16 -12 -121 -1 -116 95 49 188 71 307 71 72 1 116 -4 155 -18
64 -21 273 -114 280 -124 3 -4 28 -22 55 -41 96 -67 242 -201 328 -304 130
-154 212 -296 272 -466 18 -54 45 -120 58 -146 13 -27 28 -60 32 -73 14 -46
134 -286 184 -370 28 -46 51 -85 51 -87 0 -2 25 -27 56 -56 93 -90 173 -116
251 -83 51 22 69 40 109 111 116 208 159 411 158 764 0 229 -14 331 -63 460
-42 109 -141 209 -209 210 -100 1 -190 -124 -225 -315 -19 -99 -30 -338 -19
-385 6 -26 10 9 15 130 6 165 24 273 63 369 24 60 27 45 7 -30 -12 -46 -17
-105 -17 -209 -1 -163 14 -232 64 -292 24 -28 34 -33 72 -33 25 0 53 7 63 15
20 17 60 99 51 107 -2 3 -11 -10 -19 -30 -17 -41 -51 -67 -87 -67 -105 0 -157
206 -115 455 34 202 56 235 153 235 51 0 55 -2 104 -52 88 -90 129 -210 149
-432 18 -206 -11 -501 -66 -671 -48 -145 -108 -247 -170 -285 -69 -43 -176
-21 -239 49 -26 28 -19 32 32 19 32 -8 54 -8 82 1 51 15 132 89 170 156 32 56
81 187 79 214 0 9 -9 -9 -20 -39 -31 -88 -66 -152 -116 -209 -54 -62 -92 -81
-161 -81 -81 0 -173 72 -228 179 -23 44 -25 56 -14 59 31 10 80 75 95 124 23
77 30 172 15 207 -29 70 -79 38 -85 -55 l-5 -59 13 50 c9 38 17 50 31 50 27 0
35 -36 26 -113 -5 -42 -17 -76 -34 -103 -30 -45 -46 -54 -81 -45 -32 8 -61 61
-125 226 -93 243 -169 408 -222 483 l-19 27 23 -9 c13 -5 49 -21 82 -35 148
-67 256 -35 321 94 13 26 37 61 54 77 36 37 45 88 39 225 -5 104 -24 156 -25
70 0 -27 -10 -67 -22 -91 -28 -60 -47 -159 -33 -173 8 -8 14 -5 22 13 10 22
10 22 4 -6 -3 -16 -10 -32 -15 -33 -5 -2 -16 -18 -23 -36 -21 -49 -73 -103
-113 -117 -62 -20 -152 -6 -240 37 -78 39 -145 90 -164 127 -10 18 -8 19 30
12 32 -5 52 -1 101 21 111 50 167 146 177 304 7 104 -9 189 -44 230 -25 31
-29 32 -118 23z"/>
<path d="M8907 5518 c-4 -51 -10 -148 -13 -216 -7 -132 -20 -149 -31 -39 -6
66 -23 94 -23 38 0 -35 -27 -50 -32 -18 l-3 22 -14 -23 c-10 -18 -10 -30 -1
-51 8 -19 8 -35 0 -55 -5 -15 -10 -43 -10 -62 0 -22 -4 -33 -11 -29 -6 4 -7
20 -4 38 5 24 4 29 -4 21 -11 -10 -17 -38 -21 -94 -2 -21 -3 -20 -11 10 -5 19
-6 45 -4 57 3 12 1 25 -5 28 -16 10 -12 33 11 64 31 42 14 60 -22 23 -24 -25
-29 -40 -34 -98 -3 -38 -8 -82 -11 -98 -10 -49 -23 -8 -26 78 -1 42 -5 79 -10
82 -4 3 -8 -7 -8 -21 0 -38 -20 -20 -21 18 0 26 -2 28 -8 12 -5 -11 -11 -96
-15 -190 -4 -93 -15 -305 -26 -470 -10 -165 -22 -365 -25 -445 -6 -157 -18
-349 -41 -644 -8 -103 -14 -194 -14 -202 0 -8 -5 -14 -10 -14 -7 0 -9 13 -5
33 9 52 14 327 5 327 -4 0 -10 -28 -13 -61 -3 -34 -10 -65 -16 -68 -13 -8 -17
-68 -7 -101 8 -24 8 -24 -8 -5 -8 11 -16 14 -16 8 0 -7 -11 -13 -25 -13 -18 0
-25 -5 -25 -20 0 -23 10 -26 28 -8 25 25 54 -50 36 -96 -8 -20 -27 -20 -65 0
-25 12 -30 21 -29 47 3 47 1 61 -7 53 -4 -4 -8 -13 -8 -19 -1 -33 -18 -77 -29
-77 -7 0 -23 14 -36 30 -26 34 -40 38 -40 12 0 -9 -9 -23 -19 -29 -11 -7 -21
-23 -24 -35 -2 -13 -5 0 -5 27 0 38 2 45 9 30 10 -21 8 -9 -9 70 l-6 30 -7
-30 c-6 -29 -7 -29 -9 10 -3 31 -5 25 -10 -30 -11 -105 -11 -175 0 -175 5 0 7
6 4 14 -3 8 -2 22 4 31 12 22 32 -80 29 -147 -2 -58 -17 -64 -17 -8 0 22 -3
40 -8 40 -4 0 -8 -51 -9 -112 -1 -62 -2 -117 -3 -122 0 -4 -7 -6 -15 -3 -11 5
-12 1 -4 -20 14 -38 42 -83 51 -83 4 0 8 -9 8 -19 0 -11 13 -28 30 -38 34 -20
37 -28 13 -37 -15 -6 -15 -8 -3 -17 13 -8 13 -11 -2 -20 -11 -6 -18 -22 -18
-40 0 -25 3 -29 19 -24 10 3 24 -1 31 -10 9 -11 9 -15 1 -15 -8 0 -8 -4 1 -14
7 -8 16 -12 20 -9 4 2 21 -9 37 -26 20 -20 32 -26 39 -19 18 18 44 1 37 -23
-6 -19 -4 -21 19 -17 l26 5 0 -88 c0 -48 2 -94 5 -101 4 -9 -7 -21 -27 -31
-33 -18 -59 -33 -88 -52 -11 -7 46 -21 199 -51 187 -37 217 -41 234 -29 14 10
25 11 39 4 12 -6 18 -6 18 1 0 5 -6 10 -12 10 -10 0 -9 3 1 9 9 6 10 11 2 15
-6 4 -15 5 -20 2 -5 -3 -11 1 -15 9 -7 19 3 24 51 23 33 0 45 -6 62 -28 18
-25 18 -30 5 -41 -8 -7 -11 -15 -7 -18 18 -12 103 -140 103 -154 0 -8 9 -22
20 -32 20 -18 20 -17 20 23 0 22 -4 44 -10 47 -5 3 -10 15 -10 26 0 11 5 17
10 14 7 -4 10 113 10 344 0 227 -4 351 -10 351 -5 0 -10 8 -10 18 0 14 2 15
10 2 6 -10 10 509 10 1453 l0 1467 -44 0 -43 0 -6 -92z"/>
<path d="M7102 5488 c-8 -8 -11 -39 -11 -87 2 -61 3 -68 8 -36 l7 40 8 -53 c7
-44 10 -51 22 -41 22 18 29 2 10 -26 -16 -24 -16 -28 -1 -63 27 -60 43 -86 56
-91 18 -6 4 68 -20 100 -17 23 -18 29 -6 39 17 14 25 130 9 130 -15 0 -44 -33
-44 -50 0 -7 -3 -10 -7 -6 -4 4 -6 26 -5 49 1 23 -1 57 -6 75 -6 26 -10 30
-20 20z"/>
<path d="M5250 5464 c-114 -13 -275 -80 -291 -120 -5 -14 -9 -61 -9 -105 l0
-80 33 24 c125 95 322 123 497 72 188 -55 303 -112 406 -199 111 -95 186 -190
279 -354 6 -10 24 -40 42 -67 17 -28 59 -120 91 -205 186 -482 248 -606 362
-720 98 -99 151 -125 250 -125 52 0 86 5 109 17 25 13 38 15 47 7 9 -8 18 -5
34 11 11 11 25 18 30 15 6 -4 10 8 10 27 0 18 12 55 26 82 14 26 46 98 70 160
25 61 51 120 58 131 7 11 31 68 55 126 34 85 51 114 89 151 89 87 163 106 209
55 35 -39 102 -147 91 -147 -14 0 -5 -127 12 -165 l14 -30 7 55 c4 30 7 81 8
113 1 51 -2 59 -22 68 -13 6 -37 38 -56 75 -18 36 -44 72 -58 81 -56 37 -150
6 -208 -68 -16 -21 -34 -38 -38 -39 -5 0 -6 3 -4 8 3 4 15 65 26 135 26 157
60 245 116 304 61 63 110 59 160 -15 25 -37 35 -30 14 11 -53 102 -137 103
-204 2 -41 -62 -81 -177 -95 -271 -17 -122 -38 -218 -60 -277 -23 -61 -40 -73
-21 -15 50 153 110 656 84 703 -7 13 -12 -26 -16 -136 -11 -332 -91 -659 -237
-971 l-13 -27 -18 22 c-14 17 -18 18 -19 6 0 -8 -11 -30 -24 -48 -14 -19 -28
-47 -31 -63 -9 -38 -43 -51 -125 -46 -89 6 -150 38 -235 123 -55 55 -82 95
-127 180 -54 105 -73 154 -203 500 -70 188 -113 283 -177 393 -66 115 -130
206 -187 265 -102 107 -424 319 -536 352 -49 15 -162 25 -215 19z"/>
<path d="M5212 5185 c-72 -17 -194 -72 -236 -108 -24 -20 -31 -34 -36 -83 -4
-32 -5 -63 -3 -67 3 -4 30 16 61 44 62 57 152 104 183 96 10 -3 19 -1 19 4 0
29 137 -10 185 -53 44 -38 99 -152 116 -236 26 -139 -4 -341 -70 -465 -67
-126 -99 -157 -165 -157 -83 0 -143 68 -172 196 -13 62 -14 82 -4 126 16 69
35 104 65 124 31 20 60 11 77 -26 13 -30 28 -40 28 -20 0 23 -30 66 -55 80
-23 12 -30 12 -53 0 -41 -23 -79 -108 -87 -193 -19 -204 105 -368 246 -326 74
23 142 129 195 304 24 80 27 106 28 240 0 131 -3 158 -23 215 -27 79 -58 133
-104 183 l-35 37 32 0 c47 0 144 -26 209 -55 147 -65 345 -237 441 -383 44
-67 49 -79 50 -137 1 -49 6 -70 24 -94 28 -38 29 -71 2 -78 -24 -6 -26 -26 -5
-43 13 -10 19 -9 37 6 l21 19 -7 -108 c-18 -302 -116 -522 -246 -557 -119 -32
-193 72 -229 321 -26 177 -30 191 -26 79 8 -187 49 -341 109 -405 59 -62 157
-66 220 -9 14 13 28 24 31 24 3 0 5 -31 5 -69 0 -150 37 -255 126 -357 35 -40
64 -78 64 -85 0 -6 -19 -47 -42 -90 -68 -128 -226 -291 -315 -325 -43 -17 -57
-34 -28 -34 69 0 211 117 317 260 33 45 88 149 88 166 0 18 0 18 51 -6 68 -30
163 -27 216 7 57 37 78 86 78 185 0 60 -4 81 -17 95 -23 22 -36 9 -15 -15 21
-23 23 -128 3 -176 -29 -70 -114 -100 -207 -72 -89 26 -87 22 -56 128 31 108
67 312 67 381 0 26 2 47 5 47 2 0 23 -20 46 -45 54 -58 110 -85 182 -85 31 0
59 5 62 10 4 6 -13 10 -42 10 -65 0 -138 37 -195 98 l-45 48 -6 124 c-9 172
-44 308 -123 479 -31 67 -32 75 -19 94 17 24 20 87 5 87 -5 0 -10 -9 -10 -20
0 -38 -27 -21 -33 21 -5 40 -33 83 -48 74 -4 -3 -40 43 -79 102 -108 159 -173
238 -256 303 -83 66 -209 132 -299 156 -84 22 -226 26 -303 9z m1017 -832 c33
-67 70 -167 91 -249 20 -75 42 -280 32 -298 -7 -12 -56 110 -75 185 -36 144
-82 399 -71 399 2 0 12 -17 23 -37z m15 -335 c20 -87 72 -223 91 -238 38 -32
-8 -359 -76 -536 l-10 -27 -35 34 c-96 93 -142 219 -145 393 -1 66 3 91 20
124 51 100 93 256 107 392 l7 75 13 -75 c6 -41 19 -105 28 -142z"/>
<path d="M5707 4541 c-52 -62 -89 -230 -68 -308 13 -48 32 -58 29 -15 -1 15 0
50 2 77 3 44 4 40 9 -30 l6 -80 18 54 c11 36 17 87 17 150 0 53 5 114 10 136
5 22 7 41 6 43 -2 1 -15 -11 -29 -27z"/>
<path d="M6763 4503 c-29 -11 -9 -146 26 -177 22 -20 41 -13 87 29 20 19 23
25 11 25 -11 0 -20 15 -28 45 -15 61 -57 94 -96 78z"/>
<path d="M6197 2970 l-42 -40 33 4 c36 4 62 -21 62 -59 0 -18 -5 -21 -29 -17
-33 5 -77 -20 -87 -50 -3 -11 -1 -32 6 -48 6 -15 10 -39 8 -52 l-4 -23 -11 25
c-6 14 -18 31 -26 38 -12 11 -15 4 -21 -48 -4 -33 -13 -75 -21 -93 -14 -31
-14 -29 -15 56 0 105 -13 112 -60 36 -17 -28 -33 -49 -36 -46 -3 3 2 26 10 51
20 58 20 59 -3 47 -37 -21 -61 -91 -66 -197 l-4 -99 37 44 c20 24 45 57 55 75
l19 31 -7 -41 c-4 -23 -1 -70 6 -103 l12 -62 21 20 c27 25 60 116 58 156 -1
28 0 27 21 -15 19 -38 27 -45 55 -48 57 -6 59 -2 51 84 -5 44 -10 98 -12 121
l-4 41 32 -5 c20 -3 44 1 64 12 27 13 32 21 26 38 -3 12 -14 57 -24 99 -17 74
-33 108 -53 108 -5 0 -28 -18 -51 -40z"/>
<path d="M5700 2779 c-26 -17 -56 -28 -70 -27 -21 3 -25 -1 -22 -22 6 -48 23
-87 47 -110 19 -18 30 -21 63 -15 38 6 102 53 102 74 0 14 -3 14 -44 -6 -29
-13 -38 -14 -51 -3 -21 17 -19 29 3 23 20 -5 83 26 89 44 5 13 -45 73 -60 72
-7 0 -32 -14 -57 -30z"/>
<path d="M7842 796 c-9 -5 -33 -26 -54 -46 l-36 -37 54 2 c30 1 54 -2 54 -7 0
-4 -6 -8 -12 -8 -10 0 -9 -3 1 -9 8 -5 9 -11 3 -15 -6 -3 -8 -15 -5 -26 5 -19
7 -18 39 6 19 15 32 30 29 34 -3 4 2 11 11 14 8 3 12 11 8 17 -4 8 -3 9 4 5 7
-4 23 1 37 11 29 21 33 38 6 23 -17 -9 -20 -6 -23 18 -3 25 -6 27 -51 27 -26
0 -55 -4 -65 -9z"/>
<path d="M7647 616 c4 -5 -1 -7 -10 -3 -11 4 -20 -1 -27 -13 -6 -11 -16 -20
-23 -20 -7 0 -30 -16 -52 -35 -22 -19 -43 -35 -47 -35 -7 0 -187 -146 -198
-160 -3 -4 -12 -11 -21 -16 -19 -10 -83 -63 -175 -144 -88 -77 -182 -150 -192
-150 -5 0 -17 -9 -27 -20 -18 -20 -17 -20 123 -20 77 0 142 3 144 8 2 4 41 40
88 80 47 41 99 86 115 100 17 15 75 65 130 112 55 46 141 121 190 166 50 44
100 89 113 100 30 25 48 56 28 48 -8 -3 -17 -13 -20 -21 -6 -14 -8 -14 -24 -1
-28 25 -128 46 -115 24z"/>
</g>
</svg>
