<?xml version="1.0" standalone="no"?>
<!DOCTYPE svg PUBLIC "-//W3C//DTD SVG 20010904//EN"
 "http://www.w3.org/TR/2001/REC-SVG-20010904/DTD/svg10.dtd">
<svg version="1.0" xmlns="http://www.w3.org/2000/svg"
 width="225.000000pt" height="225.000000pt" viewBox="0 0 225.000000 225.000000"
 preserveAspectRatio="xMidYMid meet">
<metadata>
Created by potrace 1.16, written by Peter Selinger 2001-2019
</metadata>
<g transform="translate(0.000000,225.000000) scale(0.100000,-0.100000)"
fill="#000000" stroke="none">
<path d="M366 1429 c-11 -10 -16 -22 -13 -26 4 -3 7 -1 7 5 0 7 6 12 14 12 13
0 20 -100 26 -390 1 -80 3 -86 19 -75 7 4 11 51 11 121 0 105 2 115 18 112 15
-3 17 -21 20 -186 2 -140 5 -183 15 -179 6 2 13 25 15 50 3 47 16 59 39 36 16
-16 33 -2 33 27 0 15 6 24 15 24 13 0 15 25 15 163 l0 164 -97 81 c-54 45
-102 82 -108 81 -5 0 -19 -9 -29 -20z"/>
<path d="M700 1285 c0 -24 2 -24 85 -27 l86 -3 -91 -125 c-61 -85 -90 -134
-90 -152 l0 -28 130 0 130 0 0 30 0 30 -90 0 c-107 0 -108 -14 8 144 46 63 80
119 80 132 0 24 -1 24 -124 24 l-124 0 0 -25z"/>
<path d="M1290 1248 c0 -61 0 -61 -20 -43 -25 22 -81 25 -105 5 -65 -54 -62
-214 4 -250 32 -16 76 -12 97 11 l18 20 8 -21 c5 -15 15 -20 30 -18 23 3 23 5
26 181 l2 177 -30 0 -30 0 0 -62z m-16 -90 c9 -12 16 -43 16 -68 0 -58 -22
-90 -61 -90 -25 0 -33 6 -45 37 -27 64 2 143 52 143 13 0 30 -10 38 -22z"/>
<path d="M1447 1138 c-31 -96 -57 -177 -57 -181 0 -4 11 -7 25 -7 21 0 27 7
37 45 l12 45 72 0 72 0 14 -42 c11 -38 17 -43 46 -46 29 -3 33 -1 28 15 -3 10
-30 90 -59 178 l-54 160 -39 3 -39 3 -58 -173z"/>
<path d="M1946 1255 c-4 -21 -13 -35 -21 -35 -9 0 -15 -10 -15 -25 0 -16 6
-25 15 -25 12 0 15 -17 15 -90 0 -105 14 -130 75 -130 31 0 35 3 35 25 0 17
-5 25 -18 25 -33 0 -42 22 -42 97 l0 73 30 0 c25 0 30 4 30 25 0 21 -5 25 -30
25 -28 0 -30 3 -30 35 0 28 -4 35 -19 35 -14 0 -21 -10 -25 -35z"/>
<path d="M1000 1084 l0 -135 28 3 27 3 3 133 3 132 -31 0 -30 0 0 -136z"/>
<path d="M1747 1213 c-2 -4 -4 -64 -3 -133 l1 -125 28 -3 27 -3 0 75 c0 90 14
125 52 133 23 4 28 11 28 34 0 40 -31 38 -65 -3 l-26 -33 3 30 c2 24 -1 31
-19 33 -11 2 -23 0 -26 -5z"/>
</g>
</svg>
